<svg width="28" height="25" viewBox="0 0 28 25" fill="none" xmlns="http://www.w3.org/2000/svg">
<g clip-path="url(#clip0_184_19)">
<path d="M10 0.5C8.61979 0.5 7.32422 0.760416 6.11328 1.28125C4.90234 1.8151 3.8444 2.53451 2.93945 3.43945C2.03451 4.3444 1.3151 5.40234 0.78125 6.61328C0.260417 7.82422 0 9.11979 0 10.5C0 11.8802 0.260417 13.1758 0.78125 14.3867C1.3151 15.5977 2.03451 16.6556 2.93945 17.5605C3.8444 18.4655 4.90234 19.1849 6.11328 19.7188C7.32422 20.2396 8.61979 20.5 10 20.5C11.3802 20.5 12.6758 20.2396 13.8867 19.7188C15.0977 19.1849 16.1556 18.4655 17.0605 17.5605C17.9655 16.6556 18.6849 15.5977 19.2188 14.3867C19.7396 13.1758 20 11.8802 20 10.5C20 9.11979 19.7396 7.82422 19.2188 6.61328C18.6849 5.40234 17.9655 4.3444 17.0605 3.43945C16.1556 2.53451 15.0977 1.8151 13.8867 1.28125C12.6758 0.760416 11.3802 0.5 10 0.5ZM16.8945 6.49609H14.6094C14.5052 5.89714 14.3555 5.32747 14.1602 4.78711C13.9648 4.24674 13.7435 3.7487 13.4961 3.29297C14.2513 3.64453 14.9089 4.09049 15.4688 4.63086C16.0286 5.17122 16.5039 5.79297 16.8945 6.49609ZM13.0078 10.5C13.0078 10.8516 13.0013 11.1966 12.9883 11.5352C12.9753 11.8737 12.9427 12.1927 12.8906 12.4922H7.10938C7.05729 12.1927 7.02474 11.8737 7.01172 11.5352C6.9987 11.1966 6.99219 10.8516 6.99219 10.5C6.99219 10.1484 6.9987 9.80339 7.01172 9.46484C7.02474 9.1263 7.05729 8.80729 7.10938 8.50781H12.8906C12.9427 8.80729 12.9753 9.1263 12.9883 9.46484C13.0013 9.80339 13.0078 10.1484 13.0078 10.5ZM10 18.5078C9.59635 18.5078 9.15039 18.153 8.66211 17.4434C8.17383 16.7337 7.75391 15.7539 7.40234 14.5039H12.5C12.2005 15.7539 11.8099 16.7337 11.3281 17.4434C10.8464 18.153 10.4036 18.5078 10 18.5078ZM7.40234 6.49609C7.70182 5.24609 8.0957 4.26628 8.58398 3.55664C9.07227 2.84701 9.54427 2.49219 10 2.49219C10.4036 2.49219 10.8496 2.84701 11.3379 3.55664C11.8262 4.26628 12.2461 5.24609 12.5977 6.49609H7.40234ZM6.40625 3.29297C6.19792 3.7487 6.0026 4.24674 5.82031 4.78711C5.63802 5.32747 5.49479 5.89714 5.39062 6.49609H3.10547C3.49609 5.79297 3.9681 5.17122 4.52148 4.63086C5.07487 4.09049 5.70312 3.64453 6.40625 3.29297ZM2.30469 8.50781H5.09766C5.04557 8.80729 5.01628 9.1263 5.00977 9.46484C5.00326 9.80339 5 10.1484 5 10.5C5 10.8516 5.00326 11.1966 5.00977 11.5352C5.01628 11.8737 5.04557 12.1927 5.09766 12.4922H2.30469C2.20052 12.1927 2.1224 11.8737 2.07031 11.5352C2.01823 11.1966 1.99219 10.8516 1.99219 10.5C1.99219 10.1484 2.01823 9.80339 2.07031 9.46484C2.1224 9.1263 2.20052 8.80729 2.30469 8.50781ZM3.10547 14.5039H5.39062C5.49479 15.1029 5.64453 15.6725 5.83984 16.2129C6.03516 16.7533 6.25651 17.2513 6.50391 17.707C5.7487 17.3555 5.09115 16.9095 4.53125 16.3691C3.97135 15.8288 3.49609 15.207 3.10547 14.5039ZM13.5938 17.707C13.8021 17.2513 14.0007 16.7533 14.1895 16.2129C14.3783 15.6725 14.5508 15.1029 14.707 14.5039H16.9922C16.5495 15.207 16.0482 15.8288 15.4883 16.3691C14.9284 16.9095 14.2969 17.3555 13.5938 17.707ZM17.6953 12.4922H14.9023C14.9544 12.1927 14.9837 11.8737 14.9902 11.5352C14.9967 11.1966 15 10.8516 15 10.5C15 10.1484 14.9967 9.80339 14.9902 9.46484C14.9837 9.1263 14.9544 8.80729 14.9023 8.50781H17.6953C17.7995 8.80729 17.8776 9.1263 17.9297 9.46484C17.9818 9.80339 18.0078 10.1484 18.0078 10.5C18.0078 10.8516 17.9818 11.1966 17.9297 11.5352C17.8776 11.8737 17.7995 12.1927 17.6953 12.4922Z" fill="#A8B0BF"/>
</g>
<rect width="19.2" height="10" transform="translate(8.80078 15)" fill="#23252B"/>
<path d="M13.1023 20.9375L14.5008 17.3125H15.7625L13.8133 21.8984C13.7456 22.0547 13.6674 22.2044 13.5789 22.3477C13.493 22.4883 13.3901 22.6146 13.2703 22.7266C13.1505 22.8359 13.0073 22.9232 12.8406 22.9883C12.674 23.0508 12.4747 23.082 12.243 23.082C12.1857 23.082 12.1154 23.0807 12.032 23.0781C11.9487 23.0755 11.8823 23.0716 11.8328 23.0664L11.825 22.1523C11.8562 22.1602 11.9057 22.1654 11.9734 22.168C12.0411 22.168 12.0906 22.168 12.1219 22.168C12.2755 22.168 12.3966 22.1458 12.4852 22.1016C12.5737 22.0573 12.644 21.9948 12.6961 21.9141C12.7508 21.8307 12.799 21.7331 12.8406 21.6211L13.1023 20.9375ZM12.1766 17.3125L13.4734 20.1289L13.8367 21.4219L12.9656 21.4375L10.9187 17.3125H12.1766ZM17.5477 17.3125V23H16.3758V17.3125H17.5477ZM20.8992 17.3125L18.7195 20.6523H17.2859L17.1375 19.6094H18.0945L19.4773 17.3125H20.8992ZM19.6922 23L18.0984 20.457L18.9109 19.6211L21.0828 23H19.6922ZM23.7586 20.9727H22.3094V20.0586H23.7586C23.9826 20.0586 24.1648 20.0221 24.3055 19.9492C24.4461 19.8737 24.549 19.7695 24.6141 19.6367C24.6792 19.5039 24.7117 19.3542 24.7117 19.1875C24.7117 19.0182 24.6792 18.8607 24.6141 18.7148C24.549 18.569 24.4461 18.4518 24.3055 18.3633C24.1648 18.2747 23.9826 18.2305 23.7586 18.2305H22.7156V23H21.5437V17.3125H23.7586C24.2039 17.3125 24.5854 17.3932 24.9031 17.5547C25.2234 17.7135 25.4682 17.9336 25.6375 18.2148C25.8068 18.4961 25.8914 18.8177 25.8914 19.1797C25.8914 19.5469 25.8068 19.8646 25.6375 20.1328C25.4682 20.401 25.2234 20.6081 24.9031 20.7539C24.5854 20.8997 24.2039 20.9727 23.7586 20.9727Z" fill="#A8B0BF"/>
<defs>
<clipPath id="clip0_184_19">
<rect width="20" height="21" fill="white" transform="matrix(1 0 0 -1 0 21)"/>
</clipPath>
</defs>
</svg>
