<svg width="28" height="25" viewBox="0 0 28 25" fill="none" xmlns="http://www.w3.org/2000/svg">
<g clip-path="url(#clip0_183_18)">
<path d="M10 0.5C8.61979 0.5 7.32422 0.760417 6.11328 1.28125C4.90234 1.8151 3.8444 2.53451 2.93945 3.43945C2.03451 4.3444 1.3151 5.40234 0.78125 6.61328C0.260417 7.82422 0 9.11979 0 10.5C0 11.8802 0.260417 13.1758 0.78125 14.3867C1.3151 15.5977 2.03451 16.6556 2.93945 17.5605C3.8444 18.4655 4.90234 19.1849 6.11328 19.7188C7.32422 20.2396 8.61979 20.5 10 20.5C11.3802 20.5 12.6758 20.2396 13.8867 19.7188C15.0977 19.1849 16.1556 18.4655 17.0605 17.5605C17.9655 16.6556 18.6849 15.5977 19.2188 14.3867C19.7396 13.1758 20 11.8802 20 10.5C20 9.11979 19.7396 7.82422 19.2188 6.61328C18.6849 5.40234 17.9655 4.3444 17.0605 3.43945C16.1556 2.53451 15.0977 1.8151 13.8867 1.28125C12.6758 0.760417 11.3802 0.5 10 0.5ZM16.8945 6.49609H14.6094C14.5052 5.89714 14.3555 5.32747 14.1602 4.78711C13.9648 4.24674 13.7435 3.7487 13.4961 3.29297C14.2513 3.64453 14.9089 4.09049 15.4688 4.63086C16.0286 5.17122 16.5039 5.79297 16.8945 6.49609ZM13.0078 10.5C13.0078 10.8516 13.0013 11.1966 12.9883 11.5352C12.9753 11.8737 12.9427 12.1927 12.8906 12.4922H7.10938C7.05729 12.1927 7.02474 11.8737 7.01172 11.5352C6.9987 11.1966 6.99219 10.8516 6.99219 10.5C6.99219 10.1484 6.9987 9.80339 7.01172 9.46484C7.02474 9.1263 7.05729 8.80729 7.10938 8.50781H12.8906C12.9427 8.80729 12.9753 9.1263 12.9883 9.46484C13.0013 9.80339 13.0078 10.1484 13.0078 10.5ZM10 18.5078C9.59635 18.5078 9.15039 18.153 8.66211 17.4434C8.17383 16.7337 7.75391 15.7539 7.40234 14.5039H12.5C12.2005 15.7539 11.8099 16.7337 11.3281 17.4434C10.8464 18.153 10.4036 18.5078 10 18.5078ZM7.40234 6.49609C7.70182 5.24609 8.0957 4.26628 8.58398 3.55664C9.07227 2.84701 9.54427 2.49219 10 2.49219C10.4036 2.49219 10.8496 2.84701 11.3379 3.55664C11.8262 4.26628 12.2461 5.24609 12.5977 6.49609H7.40234ZM6.40625 3.29297C6.19792 3.7487 6.0026 4.24674 5.82031 4.78711C5.63802 5.32747 5.49479 5.89714 5.39062 6.49609H3.10547C3.49609 5.79297 3.9681 5.17122 4.52148 4.63086C5.07487 4.09049 5.70312 3.64453 6.40625 3.29297ZM2.30469 8.50781H5.09766C5.04557 8.80729 5.01628 9.1263 5.00977 9.46484C5.00326 9.80339 5 10.1484 5 10.5C5 10.8516 5.00326 11.1966 5.00977 11.5352C5.01628 11.8737 5.04557 12.1927 5.09766 12.4922H2.30469C2.20052 12.1927 2.1224 11.8737 2.07031 11.5352C2.01823 11.1966 1.99219 10.8516 1.99219 10.5C1.99219 10.1484 2.01823 9.80339 2.07031 9.46484C2.1224 9.1263 2.20052 8.80729 2.30469 8.50781ZM3.10547 14.5039H5.39062C5.49479 15.1029 5.64453 15.6725 5.83984 16.2129C6.03516 16.7533 6.25651 17.2513 6.50391 17.707C5.7487 17.3555 5.09115 16.9095 4.53125 16.3691C3.97135 15.8288 3.49609 15.207 3.10547 14.5039ZM13.5938 17.707C13.8021 17.2513 14.0007 16.7533 14.1895 16.2129C14.3783 15.6725 14.5508 15.1029 14.707 14.5039H16.9922C16.5495 15.207 16.0482 15.8288 15.4883 16.3691C14.9284 16.9095 14.2969 17.3555 13.5938 17.707ZM17.6953 12.4922H14.9023C14.9544 12.1927 14.9837 11.8737 14.9902 11.5352C14.9967 11.1966 15 10.8516 15 10.5C15 10.1484 14.9967 9.80339 14.9902 9.46484C14.9837 9.1263 14.9544 8.80729 14.9023 8.50781H17.6953C17.7995 8.80729 17.8776 9.1263 17.9297 9.46484C17.9818 9.80339 18.0078 10.1484 18.0078 10.5C18.0078 10.8516 17.9818 11.1966 17.9297 11.5352C17.8776 11.8737 17.7995 12.1927 17.6953 12.4922Z" fill="#A8B0BF"/>
</g>
<rect width="19.2" height="10" transform="translate(8.80078 15)" fill="#23252B"/>
<path d="M17.7508 22.0859V23H14.7234V22.0859H17.7508ZM15.1062 17.3125V23H13.9344V17.3125H15.1062ZM17.3562 19.6289V20.5195H14.7234V19.6289H17.3562ZM17.7469 17.3125V18.2305H14.7234V17.3125H17.7469ZM23.0633 17.3125V23H21.8914L19.6062 19.1875V23H18.4344V17.3125H19.6062L21.8953 21.1289V17.3125H23.0633Z" fill="#A8B0BF"/>
<defs>
<clipPath id="clip0_183_18">
<rect width="20" height="21" fill="white" transform="matrix(1 0 0 -1 0 21)"/>
</clipPath>
</defs>
</svg>
